<svg version="1.2" xmlns="http://www.w3.org/2000/svg" viewBox="0 0 500 500" width="500" height="500">
	<title>webdev8</title>
	<style>
		.s0 { fill: #000000 } 
	</style>
	<g id="Background">
		<path id="Path 1" class="s0" d="m341 125c9.7 0 10 0.1 10 2.3 0 1.2-2 19.1-4.5 39.7-2.5 20.6-4.5 37.8-4.3 38.3 0.2 0.4 2.5-2.2 5.3-5.9 2.8-3.7 7.7-8.9 11-11.7 3.3-2.8 8.3-6.1 11-7.3 2.8-1.3 7.5-2.8 10.5-3.4 3.9-0.8 7.3-0.8 11.5 0 3.4 0.6 8 2.3 10.5 3.9 2.5 1.6 5.7 4.6 7.2 6.7 1.5 2.2 3.7 6.4 4.9 9.4 1.7 4.3 2.3 8.3 2.7 18 0.2 7.4-0.1 15.6-0.8 20-0.7 4.1-2.8 11.8-4.6 17-1.9 5.2-5.5 12.9-8.1 17-2.6 4.1-7.6 10.4-11.2 14-4.2 4.2-9 7.8-13.1 9.8-3.6 1.7-9.2 3.6-12.5 4.1-3.8 0.6-8.3 0.6-12.3 0-3.4-0.5-8-1.8-10.2-2.9-2.2-1.1-5.5-3.3-7.3-4.9-3.1-2.9-3.2-3.1-2.4-8.3 0.5-2.9 1.1-6 1.3-6.8 0.3-1.2 0.8-1.1 2.7 0.7 1.2 1.2 4.4 3.2 7.2 4.4 3.2 1.4 7.1 2.1 11 2.2 4.4 0 7.6-0.7 12-2.7 3.8-1.7 7.8-4.6 10.9-7.9 2.9-3.1 6.6-8.8 9.2-14.2 2.4-4.9 5-11.9 5.9-15.5 0.8-3.6 1.8-10.3 2.1-15 0.4-5.3 0.2-10.8-0.6-14.5-0.6-3.3-2.3-7.9-3.6-10.3-1.8-3.1-3.7-4.8-7.2-6.4-3.3-1.5-5.9-2-8.7-1.6-2.2 0.3-5.8 1.3-8 2.3-2.2 1.1-6.7 4.6-10.1 8-3.3 3.3-7.9 9.2-10.2 13-2.3 3.8-5.5 10.2-7.1 14-2 4.7-3.5 10.6-4.5 18-0.8 6.1-1.9 12.1-2.4 13.5-0.6 1.4-1.7 6.3-2.5 11-0.9 4.7-1.8 10.5-2.1 13-0.3 2.5-1.5 5.7-2.6 7.3-1.4 1.9-3 2.8-8.7 3.2l18.6 49.5c10.3 27.2 19.8 53.2 21.1 57.7 1.4 4.6 2.7 8.3 3 8.3 0.3 0 1.5-3.5 2.7-7.7 1.2-4.3 10.3-29.9 20.4-56.8 10-26.9 19-50.2 20.1-51.8 1-1.6 3.4-3.1 5.5-3.8 2.1-0.5 9.7-0.9 30.1-0.4l-7.3 17-0.5 85.5 7.7-0.6c4.3-0.3 8.8-0.7 10-1 1.8-0.3 2.3 0.1 2.3 1.6 0 1.1-0.8 2.2-1.8 2.5-0.9 0.2-4.7 0.9-15.2 2.5v4.7c0 4.3 0.3 5.1 6.5 9.6l8-9 9.4 8.6c8.1 7.5 9.1 8.8 7.7 9.8-1.3 1-2 1-3.4 0.1-0.9-0.7-4.1-3.2-12.2-9.8l-4 3c-2.4 1.8-4.2 4.1-4.6 5.7-0.3 1.6-0.3 3 0 3.3 0.3 0.3 3.1-0.5 6.1-1.8 3-1.2 5.7-2.2 6-2.2 0.3 0 1.8 4.4 3.5 9.7 1.6 5.4 3 10.4 3 11 0 0.7-0.7 1.2-1.6 1-1-0.1-2.7-3-4.4-7.2-1.5-3.9-3.2-7-3.6-7-0.5 0.1-2.8 0.4-5.2 0.8-2.7 0.4-4.7 1.5-5.7 2.9-0.8 1.3-1.1 2.6-0.7 2.9 0.4 0.4 3.1 1.4 5.9 2.3 2.9 0.9 5.3 2 5.3 2.6 0 0.6-1.7 5.7-3.8 11.5-2 5.8-3.9 10.5-4.2 10.5-0.3 0-1.1-0.4-1.8-0.8-1.1-0.6-0.9-2.3 1-8.9 1.3-4.5 2.1-8.4 1.8-8.7-0.3-0.3-3-1.6-6-3-3.7-1.6-6-2.1-7-1.5-0.8 0.5-2.7 0.9-4.3 0.9-1.5 0-2.9-0.4-3.2-1-0.3-0.6-3 0.1-6.5 1.7-3.3 1.6-6 3.2-6 3.8 0 0.6 0.9 3.9 2 7.5 1.6 5.1 1.8 6.7 0.8 7.2-0.7 0.4-1.8 0.6-2.3 0.5-0.6-0.2-2.7-4.4-4.7-9.3-2-4.9-3.4-9.2-3-9.6 0.4-0.3 4.2-1.9 8.5-3.5 4.3-1.5 7.8-2.9 7.7-3.1 0-0.1-0.6-1.3-1.3-2.8-0.8-1.7-2.5-2.8-5.2-3.5-2.2-0.6-4.6-0.9-5.4-0.7-0.8 0.2-2.3 2.7-3.5 5.6-1.4 3.6-2.7 5.3-3.9 5.2-1.1 0-1.6-0.6-1.3-1.8 0.2-0.9 1.2-4.7 2.2-8.5 1.1-3.7 2.3-6.7 2.9-6.7 0.5 0 3.7 0.9 7 2 3.3 1.1 6 1.9 6.1 1.7 0.1-0.1 0.4-1.3 0.8-2.7 0.5-1.9-0.2-3.6-3.1-7.3-2.1-2.6-4.1-4.8-4.6-4.7-0.4 0-3.4 1.6-6.7 3.5-5 2.9-6.3 3.3-7.5 2.2-0.9-0.6-1.6-1.4-1.6-1.7 0.1-0.3 2.4-2.3 5.3-4.4 2.9-2.2 6.8-5 11.8-8.6l4 6c3.9 5.9 4 6 6 4.2 1.6-1.3 2.1-2.9 2-7.2 0-3-0.4-6-0.8-6.7-0.4-0.6-4-1.5-8-2-6.6-0.7-7.2-1-7.2-3.1 0-2.1 0.3-2.2 19-2.2v-32.3c0-18.4-0.3-31.8-0.8-31.2-0.5 0.6-12.1 28.8-50.7 124.6l-29.9-0.6-18.3-45.5c-10.1-25-22.2-55.1-35.8-88.1l-65 0.6-0.5 40.5h54v25l-53.5 0.5-0.5 41.5h69v26h-102l-0.5-50.3-4.7 9.4c-2.6 5.2-6.9 12.1-9.5 15.3-2.6 3.2-7.7 8.1-11.3 10.7-3.6 2.7-9.9 6.5-14 8.5-4.1 2-10.9 4.6-15 5.7-6.8 1.9-10.9 2.1-85 2.7v-27l33.2 0.6c24.8 0.5 34.8 0.3 39.3-0.6 3.3-0.7 8.5-2.4 11.5-3.9 3-1.4 7.8-4.9 10.5-7.6 2.8-2.8 6.5-7.9 8.3-11.5 1.8-3.6 3.9-9.9 4.8-14 1.2-5.5 1.5-10.7 1.1-19.5-0.4-8.7-1.1-13.8-2.7-18.5-1.2-3.6-3.2-8.3-4.5-10.5-1.3-2.2-4.9-6.5-8.2-9.5-3.9-3.8-7.8-6.3-11.8-7.9-3.3-1.2-8.5-2.7-11.5-3.2-3-0.5-12.6-0.9-37-0.9v103h-33v-129h13.5c12.4 0 13.5-0.1 13-1.8-0.2-0.9-4.7-26.2-10-56.2-5.2-30-9.5-55.1-9.5-55.8 0-0.8 2.3-1.2 8.2-1.2 5.1 0 9 0.5 10.2 1.2 1.5 1.1 2.7 7.5 7.7 41.8 3.2 22.3 5.8 42.4 5.9 44.7 0 2.4 0.3 4.3 0.7 4.3 0.5 0.1 1.7-2.1 2.7-4.7 1.1-2.6 9.5-22.8 18.8-44.8 9.3-22 17.6-40.6 18.6-41.3 1-0.7 4.6-1.2 8.4-1.2 5.5 0 7 0.3 7.7 1.7 0.5 1 4.1 20.2 8 42.8 3.8 22.5 7.1 42.4 7.3 44 0.2 1.6 0.7 3 1.2 3 0.4 0 2.5-4.7 4.6-10.5 2-5.8 9.6-25.6 16.9-44 8.8-22.3 13.9-34.1 15.4-35.3 1.7-1.4 3.9-1.8 9.9-1.7 6.9 0 7.8 0.2 7.5 1.7-0.2 1-11.1 27.5-48.2 116.2l-8.8 0.1c-7.3 0-8.8-0.3-9.6-1.8-0.5-0.9-4.1-20.2-8.1-42.7-4-22.6-7.5-41.8-7.9-42.8-0.4-1.3-6.3 11.5-18.6 40.3-9.9 23.3-18.1 42.5-18.3 42.9-0.1 0.3 6.2 0.9 14 1.3 8.4 0.5 17.7 1.6 22.5 2.8 4.6 1.1 11.1 3.3 14.5 4.8 3.5 1.5 8.5 4.3 11.3 6.1 2.7 1.9 7.4 5.7 10.3 8.5 3 2.8 7.2 7.8 9.5 11.1 2.2 3.3 5.5 9.1 10.6 20l0.1-55.5 37.5 0.1-5.1-5.3c-2.8-2.9-6-7.1-7.1-9.3-1.2-2.2-2.9-6.7-3.9-10-1.3-4.3-1.8-9.1-1.8-17 0-6.1 0.6-13.7 1.3-17 0.7-3.3 2.6-9.4 4.2-13.5 1.5-4.1 5-10.9 7.7-15 2.7-4.1 6.9-9.4 9.3-11.7 2.4-2.3 7.1-5.8 10.4-7.8 3.3-2 8.9-4.5 12.5-5.6 4.4-1.4 9.4-2 15.5-2 6.6 0 10.5 0.5 14.5 2 3 1.1 7.3 3.4 9.5 5 2.2 1.6 5.3 5.3 7 8.2 2.4 4.4 3 6.6 3 11.9 0 3.7-0.7 8.5-1.7 11-1 2.8-3.7 6.4-7 9.5-3.6 3.4-7.8 6.1-13.3 8.4-4.4 1.8-12.3 4.4-17.5 5.7-5.2 1.3-14.2 3-20 3.8-5.8 0.9-10.6 1.4-10.8 1.3-0.2-0.1 0.2-3.2 2.3-13.7l7-1.1c3.8-0.6 10.6-2 15-3.1 4.4-1.1 10.2-2.9 13-4 2.7-1.1 6.5-3 8.2-4.4 1.8-1.3 4-3.8 4.8-5.4 0.8-1.7 1.5-4.9 1.5-7.3 0.1-2.7-0.6-5.2-2-7-1.1-1.5-3.5-3.5-5.3-4.4-2-1-5.6-1.7-9.7-1.7-5.2 0-7.8 0.6-13 3.1-4.1 2-8.1 4.9-10.9 7.9-2.4 2.7-6.1 8.5-8.2 12.9-2.9 6-4.4 11-5.9 20-1.5 8.7-1.9 13.8-1.4 18.5 0.3 3.6 1.5 8.7 2.5 11.5 1 2.7 3.3 6.5 5.1 8.4 1.8 1.8 4.6 4.1 6.3 5 2.2 1.2 5.7 1.6 13.5 1.6 8.9 0 11.3-0.4 15.5-2.3 2.7-1.3 7.9-4.5 11.5-7.2 3.6-2.7 7.5-4.9 8.7-5 1.4 0 3.7 1.5 5.8 3.7 1.9 2.1 3.5 4 3.5 4.3 0 0.3-1.4 1.9-3.2 3.6-1.8 1.8-6.3 5.5-16.8 13.4l26 0.5 0.5-3c0.3-1.6 4.8-38.6 10-82 5.2-43.5 9.5-79.6 9.5-80.3 0-0.9 2.7-1.2 10-1.2z"/>
	</g>
</svg>